<?xml version="1.0" encoding="iso-8859-1"?>
<!-- Generator: Adobe Illustrator 21.0.0, SVG Export Plug-In . SVG Version: 6.00 Build 0)  -->
<svg version="1.1" id="Layer_1" xmlns="http://www.w3.org/2000/svg" xmlns:xlink="http://www.w3.org/1999/xlink" x="0px" y="0px"
	 viewBox="0 0 200 200" style="enable-background:new 0 0 200 200;" xml:space="preserve">
<style type="text/css">
	.st0{fill:#EFEFEF;}
	.st1{fill:#1EB8FF;}
	.st2{fill:#1CACEF;}
	.st3{fill:#109CDE;}
	.st4{fill-rule:evenodd;clip-rule:evenodd;fill:#FFFFFF;}
	.st5{fill:none;stroke:#1EB8FF;stroke-miterlimit:10;}
	.st6{fill:none;stroke:#B6C9D8;stroke-width:2;stroke-miterlimit:10;}
	.st7{fill:none;stroke:#FFFFFF;stroke-width:3;stroke-miterlimit:10;}
	.st8{fill:#FFFFFF;}
	.st9{fill-rule:evenodd;clip-rule:evenodd;fill:#063B54;}
	.st10{fill:none;stroke:#FFFFFF;stroke-width:2.5;stroke-miterlimit:10;}
</style>
<g id="blok_x60_150x191">
	<polygon id="_x3E_box-shadow" class="st0" points="74.709,190.981 149.418,147.852 149.422,147.095 74.713,103.966 0,147.095 
		0,147.852 	"/>
	<polygon class="st1" points="8.124,38.439 74.713,0 141.298,38.439 141.298,115.325 74.713,153.768 8.124,115.325 	"/>
	<polygon class="st2" points="8.124,39.113 74.709,77.553 74.709,153.768 8.124,115.325 	"/>
	<polygon class="st3" points="141.294,39.113 74.709,77.553 74.709,153.768 141.294,115.325 	"/>
</g>
<g id="apple-logo_x60_47x57">
	<path class="st4" d="M25.413,4.918C29.129,0.024,34.292,0,34.292,0s0.764,4.6-2.921,9.038c-3.94,4.726-8.412,3.951-8.412,3.951
		S22.116,9.27,25.413,4.918z"/>
	<path class="st4" d="M23.428,16.213c1.915,0,5.45-2.623,10.067-2.623c7.945,0,11.064,5.65,11.064,5.65s-6.108,3.124-6.108,10.701
		c0,8.553,7.613,11.501,7.613,11.501s-5.32,14.974-12.506,14.974c-3.302,0-5.869-2.223-9.347-2.223
		c-3.545,0-7.059,2.306-9.352,2.306C8.29,56.499,0,42.294,0,30.875c0-11.233,7.018-17.13,13.605-17.13
		C17.882,13.744,21.208,16.213,23.428,16.213z"/>
</g>
<g id="jump-arrow_x60_18x15">
	<g>
		<line class="st5" x1="18.109" y1="7.652" x2="1.414" y2="7.652"/>
		<polyline class="st5" points="8.359,14.596 1.414,7.652 8.359,0.707 		"/>
	</g>
	<g>
		<line class="st6" x1="18.109" y1="7.652" x2="1.414" y2="7.652"/>
		<polyline class="st6" points="8.359,14.596 1.414,7.652 8.359,0.707 		"/>
	</g>
</g>
<g id="download-arrow_x60_17x24">
	<line class="st7" x1="8.361" y1="0" x2="8.361" y2="17.549"/>
	<polyline class="st7" points="15.661,10.249 8.361,17.549 1.061,10.249 	"/>
	<line class="st7" x1="0.93" y1="21.632" x2="16.083" y2="21.632"/>
</g>
<g id="windows-logo_x60_58x58">
	<polygon class="st8" points="57.004,27.619 57.004,0 25.278,4.627 25.278,27.619 	"/>
	<polygon class="st8" points="23.041,4.953 0,8.314 0,27.619 23.041,27.619 	"/>
	<polygon class="st8" points="0,29.858 0,49.404 23.041,52.807 23.041,29.858 	"/>
	<polygon class="st8" points="25.278,53.136 57.004,57.816 57.004,29.858 25.278,29.858 	"/>
</g>
<g id="linux-logo_x60_54x73">
	<path class="st9" d="M50.353,33.562c-0.001-0.002-0.001-0.004-0.002-0.005c-3.124-7.89-8.331-13.616-10.277-21.767
		c-0.085-0.636-0.212-1.257-0.382-1.863c-0.005-0.03-0.013-0.059-0.018-0.09l-0.003,0.009C38.04,4.163,32.814,0,26.606,0
		S15.172,4.163,13.54,9.846l-0.003-0.009c-0.005,0.03-0.012,0.058-0.017,0.088c-0.17,0.606-0.297,1.228-0.382,1.865
		C11.191,19.941,5.984,25.667,2.86,33.557c-0.001,0.002-0.001,0.004-0.002,0.005C1.034,37.167,0,41.239,0,45.555
		c0,14.694,11.912,26.606,26.606,26.606c14.694,0,26.606-11.912,26.606-26.606C53.212,41.239,52.177,37.167,50.353,33.562z"/>
	<path class="st4" d="M26.606,69.56c-11.972,0-20.261-12.054-20.261-24.026c0-10.677,4.695-12.157,9.638-31.663h0.063
		c0.298-3.369,2.462-5.985,5.091-5.985s4.793,2.616,5.091,5.985h0.758c0.298-3.369,2.462-5.985,5.091-5.985
		c2.629,0,4.793,2.616,5.091,5.985h0.062c4.943,19.505,9.638,20.986,9.638,31.663C46.867,57.506,38.578,69.56,26.606,69.56z"/>
	<path class="st9" d="M33.689,14.302c0.027-0.139,0.045-0.281,0.045-0.431c0-0.962-0.59-1.743-1.319-1.743
		c-0.703,0-1.273,0.73-1.311,1.647C31.894,13.811,32.84,13.947,33.689,14.302z"/>
	<path class="st9" d="M22.107,13.775c-0.038-0.917-0.608-1.647-1.311-1.647c-0.728,0-1.319,0.78-1.319,1.743
		c0,0.15,0.019,0.292,0.045,0.431C20.371,13.947,21.317,13.811,22.107,13.775z"/>
	<path class="st9" d="M29.486,18.675c0,0-1.636,4.914-2.782,4.914s-2.782-4.914-2.782-4.914"/>
	<path class="st9" d="M46.178,51.336c-0.557-0.823-1.677-1.039-2.5-0.481c-0.221,0.15-0.39,0.344-0.52,0.558l-0.006-0.002
		c-1.253,2.167-3.168,4.844-6.181,1.363c-0.557-0.823-1.677-1.039-2.5-0.481c-0.823,0.557-1.039,1.677-0.481,2.5
		c2.114,4.09-1.082,4.874-3.56,5.233l0,0.006c-0.247,0.041-0.49,0.126-0.711,0.276c-0.823,0.557-1.039,1.677-0.481,2.5
		c0.293,0.433,0.742,0.685,1.221,0.758l0,0.011c2.645,0.667,4.298,1.535,5.814,3.275c0.01,0.014,0.014,0.03,0.024,0.044
		c0.126,0.186,0.282,0.337,0.423,0.506c0.101,0.13,0.204,0.25,0.305,0.389l0.045,0.031c2.215,2.26,5.786,2.696,8.499,0.859
		c2.727-1.847,3.64-5.351,2.334-8.255l0.012-0.009c-0.092-0.146-0.165-0.286-0.249-0.429c-0.105-0.193-0.187-0.393-0.312-0.579
		c-0.01-0.014-0.023-0.024-0.032-0.039c-1.053-2.053-1.246-3.911-0.883-6.614l-0.01-0.004C46.538,52.28,46.471,51.769,46.178,51.336
		z"/>
	<path class="st9" d="M7.034,51.336c0.557-0.823,1.677-1.039,2.5-0.481c0.221,0.15,0.39,0.344,0.52,0.558l0.006-0.002
		c1.253,2.167,3.168,4.844,6.181,1.363c0.557-0.823,1.677-1.039,2.5-0.481c0.823,0.557,1.039,1.677,0.481,2.5
		c-2.114,4.09,1.082,4.874,3.56,5.233l0,0.006c0.247,0.041,0.49,0.126,0.711,0.276c0.823,0.557,1.039,1.677,0.481,2.5
		c-0.293,0.433-0.742,0.685-1.221,0.758l0,0.011c-2.645,0.667-4.298,1.535-5.814,3.275c-0.01,0.014-0.014,0.03-0.024,0.044
		c-0.126,0.186-0.282,0.337-0.423,0.506c-0.101,0.13-0.204,0.25-0.305,0.389l-0.045,0.031c-2.215,2.26-5.786,2.696-8.499,0.859
		c-2.727-1.847-3.64-5.351-2.334-8.255l-0.012-0.009c0.092-0.146,0.165-0.286,0.249-0.429c0.105-0.193,0.187-0.393,0.312-0.579
		c0.01-0.014,0.023-0.024,0.032-0.039c1.053-2.053,1.246-3.911,0.883-6.614l0.01-0.004C6.673,52.28,6.741,51.769,7.034,51.336z"/>
</g>
<g id="small-download_x60_25x29">
	<polygon class="st1" points="0,7.2 12.473,0 24.944,7.2 24.944,21.601 12.473,28.802 0,21.601 	"/>
	<polygon class="st2" points="0,7.326 12.472,14.526 12.472,28.802 0,21.601 	"/>
	<polygon class="st3" points="24.944,7.326 12.472,14.526 12.472,28.802 24.944,21.601 	"/>
</g>
<g id="app-new-small_x60_25x29">
	<polygon class="st1" points="0,7.2 12.473,0 24.944,7.2 24.944,21.601 12.473,28.802 0,21.601 	"/>
	<line class="st10" x1="12.472" y1="6.973" x2="12.472" y2="21.829"/>
	<line class="st10" x1="19.9" y1="14.401" x2="5.044" y2="14.401"/>
</g>
</svg>
